/* XPM */
static char *_512615548196[] = {
/* columns rows colors chars-per-pixel */
"20 20 8 1 ",
"  c #454B4E",
". c #464B4F",
"X c #57594E",
"o c #E5CA50",
"O c #ADAFAF",
"+ c #AEAFB0",
"@ c white",
"# c None",
/* pixels */
"####################",
"####################",
"####################",
"####################",
"####       #########",
"####   @@@ #########",
"####   @@@ #########",
"####   @@@ #########",
"####   @@@ #####  ##",
"####       #####  ##",
"##oooo     ooo##  ##",
"##oooooo   ooo##  ##",
"##oooooo   ooo##  ##",
"##oooooooooooo    ##",
"##X          X##  ##",
"#  ++      ++  #  ##",
"#. ++      +O .#  ##",
"##.           ######",
"####################",
"####################"
};
