/* XPM */
static char *_511932691503[] = {
/* columns rows colors chars-per-pixel */
"20 20 173 2 ",
"   c #48595F",
".  c #4B5B5E",
"X  c #7F7A4E",
"o  c #646E5A",
"O  c #606C5F",
"+  c #6B725D",
"@  c #7F7A50",
"#  c #747658",
"$  c #777E5B",
"%  c #465961",
"&  c #475F6A",
"*  c #48606A",
"=  c #4E6368",
"-  c #49626D",
";  c #4C636E",
":  c #536565",
">  c #596862",
",  c #5D6F6D",
"<  c #476370",
"1  c #476371",
"2  c #496475",
"3  c #486877",
"4  c #4E6975",
"5  c #506774",
"6  c #516873",
"7  c #516973",
"8  c #566B70",
"9  c #526974",
"0  c #536B75",
"q  c #556C77",
"w  c #526C78",
"e  c #546D7B",
"r  c #506C7C",
"t  c #5C7071",
"y  c #5B717C",
"u  c #5D737E",
"i  c #5F757F",
"p  c #6C7666",
"a  c #657369",
"s  c #707D6E",
"d  c #867D4A",
"f  c #807B50",
"g  c #807B51",
"h  c #817C51",
"j  c #827C50",
"k  c #827C51",
"l  c #847D50",
"z  c #D4AA36",
"x  c #DFB33A",
"c  c #DFB43D",
"v  c #DEBB39",
"b  c #DEBC38",
"n  c #DFBC38",
"m  c #F9BD26",
"M  c #E4B637",
"N  c #E3B538",
"B  c #E4B538",
"V  c #E5B83C",
"C  c #FDC029",
"Z  c #FDC02A",
"A  c #FDC02B",
"S  c #FACC2A",
"D  c #FFD029",
"F  c #FBD62B",
"G  c #FFD32E",
"H  c #EBC435",
"J  c #E6CC3D",
"K  c #F5C731",
"L  c #FCCE30",
"P  c #F2D235",
"I  c #FDD030",
"U  c #FFD230",
"Y  c #FDD832",
"T  c #F0D139",
"R  c #FAD03F",
"E  c #BAA04F",
"W  c #B1A77C",
"Q  c #CAB440",
"!  c #C9B26C",
"~  c #E0BF63",
"^  c #EDCE45",
"/  c #FDDB43",
"(  c #FCDC4D",
")  c #FFDF6C",
"_  c #FCE36E",
"`  c #2A6A8C",
"'  c #396B82",
"]  c #1E7BAB",
"[  c #1F7CAA",
"{  c #556F80",
"}  c #407382",
"|  c #41748B",
" . c #42748B",
".. c #5D7681",
"X. c #477992",
"o. c #657780",
"O. c #647A81",
"+. c #647B86",
"@. c #617B8B",
"#. c #3386AD",
"$. c #48829C",
"%. c #48829D",
"&. c #69808D",
"*. c #6C828D",
"=. c #778985",
"-. c #72868F",
";. c #76868E",
":. c #78888F",
">. c #6B8390",
",. c #718791",
"<. c #778991",
"1. c #768992",
"2. c #7E929B",
"3. c #4B8BA9",
"4. c #7D95A1",
"5. c #739AAD",
"6. c #0097E4",
"7. c #099CE2",
"8. c #009BE9",
"9. c #009DED",
"0. c #0EA1E7",
"q. c #0DA2E9",
"w. c #27B5F6",
"e. c #26B6F8",
"r. c #28B7F8",
"t. c #8A9AA1",
"y. c #8E9BA0",
"u. c #90A1A8",
"i. c #9FADB4",
"p. c #A4B2B8",
"a. c #AEB9BC",
"s. c #FCE784",
"d. c #F2E2B4",
"f. c #FAE9B8",
"g. c #B1BEC5",
"h. c #B7C2C7",
"j. c #BBC4CB",
"k. c #BEC5C9",
"l. c #BEC6C9",
"z. c #BCC5CB",
"x. c #BDC5CB",
"c. c #BEC6CA",
"v. c #BFC6CA",
"b. c #BFC8D0",
"n. c #C2CBCF",
"m. c #C9D1D5",
"M. c #CBD3D7",
"N. c #CAD2D9",
"B. c #D2D8DC",
"V. c #FEF5CC",
"C. c #F2ECDE",
"Z. c #DBE1E3",
"A. c #DCE1E4",
"S. c #E1E6E8",
"D. c #E1E6EA",
"F. c #E5E9EB",
"G. c #E6E9EB",
"H. c #E8EBEC",
"J. c #FEFBE7",
"K. c #FFFCEE",
"L. c #ECEFF0",
"P. c #EFF1F1",
"I. c #FFFDF4",
"U. c #F2F5FB",
"Y. c #F7F8F9",
"T. c #F8F9F9",
"R. c #F9FAFA",
"E. c #FAFBFB",
"W. c #FCF9F8",
"Q. c #F8FAFD",
"!. c #FEFFFF",
"~. c white",
"^. c None",
/* pixels */
"^.^.^.^.^.^.^.^.^.^.^.^.^.^.^.^.^.^.^.^.",
"^.~.~.~.~.~.~.~.~.~.~.~.~.~.~.~.~.~.~.^.",
"^.~.~.~.~.~.~.~.~.~.~.~.~.~.~.~.~.~.~.^.",
"^.~.~.~.~.~.~.~.~.~.~.~.~.~.~.~.~.~.~.^.",
"^.~.~.~.~.~.~.~.~.~.~.~.~.~.~.~.~.~.~.^.",
"^.~.m.-.<.<.:.:.;.t.Y.~.~.~.~.~.~.~.~.^.",
"^.~.P.u - 3 | | ' u.~.~.~.~.~.~.~.~.~.^.",
"^.~.R.*.0 %.e.w.7.5.~.~.~.~.~.~.~.~.~.^.",
"^.~.R.&.0 $.w.q.6.3.W.~.~.~.~.~.~.~.~.^.",
"^.~.Q.=.t X.q.8.9.#.C.K.I.~.~.~.~.~.~.^.",
"^.J.s.T J $ ` [ ] } ^ / ( V.~.~.Z.R.~.^.",
"^.R S P Y z % .   o P Y F _ ~.S.+.L.~.^.",
"^.m Z Z Z K b b v H U L D ) ~.h.w S.~.^.",
"^.f.E X @ k k k k k f f d ! g.2.4 B.~.^.",
"^.N.5 @.{ 2 7 p a , 8 ..e y S.p.1 n.~.^.",
"^.y.q 4.>.e s x N B N V c z ~ O.1 i.~.^.",
"^.G.o.7 ; & & = : > > + # W d.a.,...G.^.",
"^.~.H.l.l.l.n.l.l.l.l.x.n.U.~.~.E.m.A.^.",
"^.~.~.~.~.~.~.~.~.~.~.~.~.~.~.~.~.~.~.^.",
"^.^.^.^.^.^.^.^.^.^.^.^.^.^.^.^.^.^.^.^."
};
