/* XPM */
static char *_512412181714[] = {
/* columns rows colors chars-per-pixel */
"20 20 16 1 ",
"  c #D0A04C",
". c #D3A75A",
"X c #D5AA5F",
"o c #DBB778",
"O c #E4C99A",
"+ c #E6CEA3",
"@ c #E9D4AE",
"# c #EAD5B0",
"$ c #EBD7B5",
"% c #F5EBDA",
"& c #F7EFE1",
"* c #F7F0E2",
"= c #FAF6EF",
"- c #FBF7F0",
"; c #FEFDFB",
": c white",
/* pixels */
"                    ",
"                    ",
"                    ",
"                    ",
"     $:::::=@       ",
"     $::$+&::+      ",
"     $::o X::&      ",
"     $::o  =:-      ",
"     $::o  =:=      ",
"     $::o  =:=      ",
"     $::o  =:=      ",
"     $::o  =:=      ",
"     $::o  =:=      ",
"     $::o  =:=      ",
"     $::o .;:*      ",
"     $::#O%::+      ",
"     $:::::-@       ",
"                    ",
"                    ",
"                    "
};
