/* XPM */
static char *_512412193180[] = {
/* columns rows colors chars-per-pixel */
"20 20 16 1 ",
"  c #7378DA",
". c #757ADA",
"X c #7E83DD",
"o c #8286DE",
"O c #9599E3",
"+ c #B0B3EA",
"@ c #B7B9EB",
"# c #BABCEC",
"$ c #BFC2EE",
"% c #C1C3EE",
"& c #C5C7EF",
"* c #E2E3F7",
"= c #E6E7F8",
"- c #E9E9F9",
"; c #F2F3FB",
": c white",
/* pixels */
"                    ",
"                    ",
"                    ",
"                    ",
"     &:::::;$.      ",
"     &::&@=::@      ",
"     &::O o::=      ",
"     &::O  ;:;      ",
"     &::O  ;:;      ",
"     &::O  ;:;      ",
"     &::O  ;:;      ",
"     &::O  ;:;      ",
"     &::O  ;:;      ",
"     &::O  ;:;      ",
"     &::O X::-      ",
"     &::$+*::#      ",
"     &:::::;%.      ",
"                    ",
"                    ",
"                    "
};
