/* XPM */
static char *_512327489548[] = {
/* columns rows colors chars-per-pixel */
"10 10 4 1 ",
"  c #438D4E",
". c #469254",
"X c #48975B",
"o c #4DA167",
/* pixels */
"          ",
"   ..  XX ",
"   XX  .. ",
" XX   o   ",
" ..   X   ",
"          ",
"o         ",
"X  o   .. ",
"   X X XX ",
"     o    "
};
