/* XPM */
static char *_512359405329[] = {
/* columns rows colors chars-per-pixel */
"20 20 2 1 ",
"  c #438D4E",
". c #4DA167",
/* pixels */
"                    ",
"                    ",
"               ..   ",
"       ..      ..   ",
"       ..      ..   ",
"       ..           ",
"   ..       ..      ",
"   ..       ..      ",
"   ..       ..      ",
"                    ",
"                    ",
"                    ",
"..                  ",
"..                  ",
"..    ..            ",
"      ..       ..   ",
"      ..       ..   ",
"          ..   ..   ",
"          ..        ",
"          ..        "
};
