/* XPM */
static char *_512412205478[] = {
/* columns rows colors chars-per-pixel */
"20 20 8 1 ",
"  c #B65F5F",
". c #C58080",
"X c #C88686",
"o c #D4A1A1",
"O c #DAAEAE",
"+ c #DEB8B8",
"@ c #E0BDBD",
"# c white",
/* pixels */
"                    ",
"                    ",
"                    ",
"                    ",
"       @##X         ",
"       @##X         ",
"       @##X         ",
"       @##X         ",
"       @##X         ",
"       @##X         ",
"       @##X         ",
"       @##X         ",
"       @##X         ",
"       @##X         ",
"       @##X         ",
"       @##+ooo.     ",
"       @######O     ",
"                    ",
"                    ",
"                    "
};
