/* XPM */
static char *_512615558340[] = {
/* columns rows colors chars-per-pixel */
"20 20 3 1 ",
"  c gray27",
". c gray36",
"X c #979797",
/* pixels */
"XXXXXXXXXXXXXXXXXXXX",
"X....  ......  ....X",
"X....  ......  ....X",
"X....  ......  ....X",
"X....  ......  ....X",
"X....  ......  ....X",
"X....  ......  ....X",
"X....  ......  ....X",
"X...XXXX....XXXX...X",
"X   X..X    X..X   X",
"X   X..X    X..X   X",
"X...XXXX....XXXX...X",
"X....  ......  ....X",
"X....  ......  ....X",
"X....  ......  ....X",
"X....  ......  ....X",
"X....  ......  ....X",
"X....  ......  ....X",
"X....  ......  ....X",
"XXXXXXXXXXXXXXXXXXXX"
};
