/* XPM */
static char *_512412231697[] = {
/* columns rows colors chars-per-pixel */
"20 20 34 1 ",
"  c #060606",
". c #070707",
"X c #0E0E0E",
"o c gray6",
"O c #161616",
"+ c gray9",
"@ c gray10",
"# c #1B1B1B",
"$ c gray12",
"% c #232323",
"& c #272727",
"* c gray17",
"= c #2C2C2C",
"- c gray19",
"; c gray20",
": c #343434",
"> c #444444",
", c gray27",
"< c gray36",
"1 c #616060",
"2 c #727272",
"3 c #747373",
"4 c gray46",
"5 c #767575",
"6 c #7E7E7E",
"7 c #898888",
"8 c #8A8888",
"9 c #8D8B8B",
"0 c #979797",
"q c #999797",
"w c #9C9B9B",
"e c #9D9C9C",
"r c #A09F9F",
"t c #A7A5A5",
/* pixels */
"0000q000000000000000",
"0<42<<<<<<0<0<<<<<<0",
"02004<<<<<0<0<<<<<<0",
"04002<<<<1e6e31<<<<0",
"0<24<<<<2t7447t2<<<q",
"0<42<<<9t,-==-,09<<q",
"02004<4q-=%%%**-t4<0",
"040021r,*%$@@%%=,w10",
"0<24<38-%%OXOO$%-740",
"0<42<64*%@X  X@%*46q",
"0200363*%@X  X@%=460",
"04qq239-*$OXXO$*-820",
"0<24<1r,*%$#@%%*,e10",
"0<42<<4t;*&%%%*:q4<w",
"02004<<9q,-**-,t9<<0",
"04003<<<4r7447r4<<<0",
"0<24<<<<<1w6w21<<<<0",
"0<<<<<<<<<0<q<<<<<<0",
"0<<<<<<<<<0<q<<<<<<0",
"00000000000000000000"
};
