/* XPM */
static char *_512412265343[] = {
/* columns rows colors chars-per-pixel */
"20 20 2 1 ",
"  c #A5A5A5",
". c gray72",
/* pixels */
"....................",
"............   .....",
"............   .....",
"............   .....",
"..   ...............",
"..   ...............",
"..   ...............",
".......  ...........",
".......  ...........",
"..................  ",
"..................  ",
"....................",
"....................",
"...........   ......",
"...........   ......",
".   .......   ......",
".   ................",
".   ................",
"....................",
"...................."
};
