/* XPM */
static char *_511905828213[] = {
/* columns rows colors chars-per-pixel */
"20 20 14 1 ",
"  c #555555",
". c #565656",
"X c #7176D3",
"o c #7378DA",
"O c #7479DA",
"+ c #797DDB",
"@ c #7C81DC",
"# c #7F83DD",
"$ c #A9ACE8",
"% c #BABDED",
"& c #EAEAF9",
"* c #FAFAFD",
"= c white",
"- c None",
/* pixels */
"--------- .---------",
"--------   .--------",
"-------     .-------",
"------        ------",
"----            ----",
"---              ---",
"--                --",
"-                  -",
"---XXXXXXXXXXXXXX---",
"---oooooOOooooooo---",
"---oooooOoooooooo---",
"---ooooooooOOOOoo---",
"---o%==&oo*====$o---",
"---o%*=&oo*====$o---",
"---o$*=&oo*====$o---",
"---oX$@@oo*====$o---",
"---ooooooo*====$o---",
"---ooooooo*====$o---",
"---ooooooo*====$o---",
"---ooooooo*====$o---"
};
