/* XPM */
static char *_512359379595[] = {
/* columns rows colors chars-per-pixel */
"20 20 2 1 ",
"  c #556BE7",
". c #6C7EE6",
/* pixels */
"                    ",
"..            ......",
"                    ",
"                    ",
"                    ",
"  ........          ",
"                    ",
"            ........",
"                    ",
"                    ",
"                    ",
"     ........       ",
"                    ",
"                    ",
"                    ",
"          ........  ",
"                    ",
"                    ",
"........            ",
"                    "
};
